<svg width="60" height="56" viewBox="0 0 60 56" fill="none" xmlns="http://www.w3.org/2000/svg">
<rect width="59.7443" height="56" rx="8" fill="#0071BC" fill-opacity="0.1"/>
<path fill-rule="evenodd" clip-rule="evenodd" d="M16.8889 42.4011L14 10H45.7443L42.8523 42.3958L29.8529 46L16.8889 42.4011Z" fill="#0071BC"/>
<path fill-rule="evenodd" clip-rule="evenodd" d="M29.8984 43.2436L40.3895 40.3574L42.8476 12.6985H29.8984V43.2436Z" fill="#29ABE2"/>
<path fill-rule="evenodd" clip-rule="evenodd" d="M20.6128 24.6024L20.9608 28.5704L29.8989 24.6024V20.6279L20.6128 24.6024Z" fill="#B3B3B3"/>
<path fill-rule="evenodd" clip-rule="evenodd" d="M39.7977 16.3855L29.8984 20.628V24.6025L39.4564 20.3535L39.7977 16.3855Z" fill="#E6E6E6"/>
<path fill-rule="evenodd" clip-rule="evenodd" d="M29.8986 34.9847L29.8679 34.9893L25.4352 33.7989L25.1456 30.6338H21.1562L21.713 36.8692L29.867 39.1269L29.8986 39.1194V34.9847Z" fill="#E6E6E6"/>
<path fill-rule="evenodd" clip-rule="evenodd" d="M29.8984 24.6025V28.5706H34.7515L34.3104 33.7585L29.8984 34.9882V39.1227L38.0254 36.865L39.0956 24.6025H29.8984Z" fill="white"/>
<path fill-rule="evenodd" clip-rule="evenodd" d="M29.8989 24.6025H20.6128L20.9608 28.5706H29.8989V24.6025Z" fill="#E6E6E6"/>
<path fill-rule="evenodd" clip-rule="evenodd" d="M29.8989 20.3535V16.3855H29.8586H19.9072L20.2594 20.3535H29.8989Z" fill="#E6E6E6"/>
<path fill-rule="evenodd" clip-rule="evenodd" d="M29.8984 16.3855V20.3038V20.3535H39.4564L39.7977 16.3855H29.8984Z" fill="white"/>
</svg>
