<svg width="174" height="31" viewBox="0 0 174 31" fill="none" xmlns="http://www.w3.org/2000/svg">
<path d="M9.848 24.256C7.88533 24.256 6.15733 23.872 4.664 23.104C3.192 22.336 2.05067 21.2907 1.24 19.968C0.429333 18.624 0.024 17.0987 0.024 15.392C0.024 13.664 0.418667 12.1387 1.208 10.816C2.01867 9.472 3.11733 8.42667 4.504 7.68C5.89067 6.912 7.45867 6.528 9.208 6.528C10.8933 6.528 12.408 6.89067 13.752 7.616C15.1173 8.32 16.1947 9.344 16.984 10.688C17.7733 12.0107 18.168 13.6 18.168 15.456C18.168 15.648 18.1573 15.872 18.136 16.128C18.1147 16.3627 18.0933 16.5867 18.072 16.8H4.088V13.888H15.448L13.528 14.752C13.528 13.856 13.3467 13.0773 12.984 12.416C12.6213 11.7547 12.12 11.2427 11.48 10.88C10.84 10.496 10.0933 10.304 9.24 10.304C8.38667 10.304 7.62933 10.496 6.968 10.88C6.328 11.2427 5.82667 11.7653 5.464 12.448C5.10133 13.1093 4.92 13.8987 4.92 14.816V15.584C4.92 16.5227 5.12267 17.3547 5.528 18.08C5.95467 18.784 6.54133 19.328 7.288 19.712C8.056 20.0747 8.952 20.256 9.976 20.256C10.8933 20.256 11.6933 20.1173 12.376 19.84C13.08 19.5627 13.72 19.1467 14.296 18.592L16.952 21.472C16.1627 22.368 15.1707 23.0613 13.976 23.552C12.7813 24.0213 11.4053 24.256 9.848 24.256ZM20.5315 24V0.255999H25.5235V24H20.5315ZM37.3885 24.256C35.5538 24.256 33.9218 23.872 32.4925 23.104C31.0845 22.336 29.9645 21.2907 29.1325 19.968C28.3218 18.624 27.9165 17.0987 27.9165 15.392C27.9165 13.664 28.3218 12.1387 29.1325 10.816C29.9645 9.472 31.0845 8.42667 32.4925 7.68C33.9218 6.912 35.5538 6.528 37.3885 6.528C39.2018 6.528 40.8232 6.912 42.2525 7.68C43.6818 8.42667 44.8018 9.46133 45.6125 10.784C46.4232 12.1067 46.8285 13.6427 46.8285 15.392C46.8285 17.0987 46.4232 18.624 45.6125 19.968C44.8018 21.2907 43.6818 22.336 42.2525 23.104C40.8232 23.872 39.2018 24.256 37.3885 24.256ZM37.3885 20.16C38.2205 20.16 38.9672 19.968 39.6285 19.584C40.2898 19.2 40.8125 18.656 41.1965 17.952C41.5805 17.2267 41.7725 16.3733 41.7725 15.392C41.7725 14.3893 41.5805 13.536 41.1965 12.832C40.8125 12.128 40.2898 11.584 39.6285 11.2C38.9672 10.816 38.2205 10.624 37.3885 10.624C36.5565 10.624 35.8098 10.816 35.1485 11.2C34.4872 11.584 33.9538 12.128 33.5485 12.832C33.1645 13.536 32.9725 14.3893 32.9725 15.392C32.9725 16.3733 33.1645 17.2267 33.5485 17.952C33.9538 18.656 34.4872 19.2 35.1485 19.584C35.8098 19.968 36.5565 20.16 37.3885 20.16ZM56.5332 24.256C54.9119 24.256 53.4506 23.8933 52.1492 23.168C50.8479 22.4427 49.8132 21.4187 49.0452 20.096C48.2986 18.7733 47.9252 17.2053 47.9252 15.392C47.9252 13.6 48.2986 12.0427 49.0452 10.72C49.8132 9.39733 50.8479 8.37333 52.1492 7.648C53.4506 6.90133 54.9119 6.528 56.5332 6.528C58.0479 6.528 59.3386 6.848 60.4052 7.488C61.4932 8.128 62.3252 9.09867 62.9012 10.4C63.4772 11.7013 63.7652 13.3653 63.7652 15.392C63.7652 17.3973 63.4666 19.0613 62.8692 20.384C62.2719 21.6853 61.4292 22.656 60.3412 23.296C59.2532 23.936 57.9839 24.256 56.5332 24.256ZM57.3972 20.16C58.2079 20.16 58.9439 19.968 59.6052 19.584C60.2666 19.2 60.7892 18.656 61.1732 17.952C61.5786 17.2267 61.7812 16.3733 61.7812 15.392C61.7812 14.3893 61.5786 13.536 61.1732 12.832C60.7892 12.128 60.2666 11.584 59.6052 11.2C58.9439 10.816 58.2079 10.624 57.3972 10.624C56.5652 10.624 55.8186 10.816 55.1572 11.2C54.4959 11.584 53.9626 12.128 53.5572 12.832C53.1732 13.536 52.9812 14.3893 52.9812 15.392C52.9812 16.3733 53.1732 17.2267 53.5572 17.952C53.9626 18.656 54.4959 19.2 55.1572 19.584C55.8186 19.968 56.5652 20.16 57.3972 20.16ZM61.6852 30.208V20.512L62.0052 15.424L61.9092 10.304V6.784H66.6772V30.208H61.6852ZM77.603 24.256C76.1737 24.256 74.8937 23.9787 73.763 23.424C72.6537 22.8693 71.7897 22.0267 71.171 20.896C70.5523 19.744 70.243 18.2827 70.243 16.512V6.784H75.235V15.776C75.235 17.2053 75.5337 18.2613 76.131 18.944C76.7497 19.6053 77.6137 19.936 78.723 19.936C79.491 19.936 80.1737 19.776 80.771 19.456C81.3683 19.1147 81.8377 18.6027 82.179 17.92C82.5203 17.216 82.691 16.3413 82.691 15.296V6.784H87.683V24H82.947V19.264L83.811 20.64C83.235 21.8347 82.3817 22.7413 81.251 23.36C80.1417 23.9573 78.9257 24.256 77.603 24.256ZM99.8917 24.256C97.9291 24.256 96.2011 23.872 94.7077 23.104C93.2357 22.336 92.0944 21.2907 91.2837 19.968C90.4731 18.624 90.0677 17.0987 90.0677 15.392C90.0677 13.664 90.4624 12.1387 91.2517 10.816C92.0624 9.472 93.1611 8.42667 94.5477 7.68C95.9344 6.912 97.5024 6.528 99.2517 6.528C100.937 6.528 102.452 6.89067 103.796 7.616C105.161 8.32 106.238 9.344 107.028 10.688C107.817 12.0107 108.212 13.6 108.212 15.456C108.212 15.648 108.201 15.872 108.18 16.128C108.158 16.3627 108.137 16.5867 108.116 16.8H94.1317V13.888H105.492L103.572 14.752C103.572 13.856 103.39 13.0773 103.028 12.416C102.665 11.7547 102.164 11.2427 101.524 10.88C100.884 10.496 100.137 10.304 99.2837 10.304C98.4304 10.304 97.6731 10.496 97.0117 10.88C96.3717 11.2427 95.8704 11.7653 95.5077 12.448C95.1451 13.1093 94.9637 13.8987 94.9637 14.816V15.584C94.9637 16.5227 95.1664 17.3547 95.5717 18.08C95.9984 18.784 96.5851 19.328 97.3317 19.712C98.0997 20.0747 98.9957 20.256 100.02 20.256C100.937 20.256 101.737 20.1173 102.42 19.84C103.124 19.5627 103.764 19.1467 104.34 18.592L106.996 21.472C106.206 22.368 105.214 23.0613 104.02 23.552C102.825 24.0213 101.449 24.256 99.8917 24.256ZM121.039 6.528C122.405 6.528 123.621 6.80533 124.687 7.36C125.775 7.89333 126.629 8.72533 127.247 9.856C127.866 10.9653 128.175 12.3947 128.175 14.144V24H123.183V14.912C123.183 13.5253 122.874 12.5013 122.255 11.84C121.658 11.1787 120.805 10.848 119.695 10.848C118.906 10.848 118.191 11.0187 117.551 11.36C116.933 11.68 116.442 12.1813 116.079 12.864C115.738 13.5467 115.567 14.4213 115.567 15.488V24H110.575V6.784H115.343V11.552L114.447 10.112C115.066 8.96 115.951 8.07467 117.103 7.456C118.255 6.83733 119.567 6.528 121.039 6.528ZM140.185 24.256C138.329 24.256 136.676 23.8827 135.225 23.136C133.775 22.368 132.633 21.312 131.801 19.968C130.991 18.624 130.585 17.0987 130.585 15.392C130.585 13.664 130.991 12.1387 131.801 10.816C132.633 9.472 133.775 8.42667 135.225 7.68C136.676 6.912 138.329 6.528 140.185 6.528C141.999 6.528 143.577 6.912 144.921 7.68C146.265 8.42667 147.257 9.504 147.897 10.912L144.025 12.992C143.577 12.1813 143.012 11.584 142.329 11.2C141.668 10.816 140.943 10.624 140.153 10.624C139.3 10.624 138.532 10.816 137.849 11.2C137.167 11.584 136.623 12.128 136.217 12.832C135.833 13.536 135.641 14.3893 135.641 15.392C135.641 16.3947 135.833 17.248 136.217 17.952C136.623 18.656 137.167 19.2 137.849 19.584C138.532 19.968 139.3 20.16 140.153 20.16C140.943 20.16 141.668 19.9787 142.329 19.616C143.012 19.232 143.577 18.624 144.025 17.792L147.897 19.904C147.257 21.2907 146.265 22.368 144.921 23.136C143.577 23.8827 141.999 24.256 140.185 24.256ZM158.137 24.256C156.174 24.256 154.446 23.872 152.953 23.104C151.481 22.336 150.339 21.2907 149.529 19.968C148.718 18.624 148.313 17.0987 148.313 15.392C148.313 13.664 148.707 12.1387 149.497 10.816C150.307 9.472 151.406 8.42667 152.793 7.68C154.179 6.912 155.747 6.528 157.497 6.528C159.182 6.528 160.697 6.89067 162.041 7.616C163.406 8.32 164.483 9.344 165.273 10.688C166.062 12.0107 166.457 13.6 166.457 15.456C166.457 15.648 166.446 15.872 166.425 16.128C166.403 16.3627 166.382 16.5867 166.361 16.8H152.377V13.888H163.737L161.817 14.752C161.817 13.856 161.635 13.0773 161.273 12.416C160.91 11.7547 160.409 11.2427 159.769 10.88C159.129 10.496 158.382 10.304 157.529 10.304C156.675 10.304 155.918 10.496 155.257 10.88C154.617 11.2427 154.115 11.7653 153.753 12.448C153.39 13.1093 153.209 13.8987 153.209 14.816V15.584C153.209 16.5227 153.411 17.3547 153.817 18.08C154.243 18.784 154.83 19.328 155.577 19.712C156.345 20.0747 157.241 20.256 158.265 20.256C159.182 20.256 159.982 20.1173 160.665 19.84C161.369 19.5627 162.009 19.1467 162.585 18.592L165.241 21.472C164.451 22.368 163.459 23.0613 162.265 23.552C161.07 24.0213 159.694 24.256 158.137 24.256ZM170.708 24.256C169.855 24.256 169.119 23.968 168.5 23.392C167.903 22.7947 167.604 22.0373 167.604 21.12C167.604 20.2027 167.903 19.4667 168.5 18.912C169.119 18.336 169.855 18.048 170.708 18.048C171.583 18.048 172.319 18.336 172.916 18.912C173.514 19.4667 173.812 20.2027 173.812 21.12C173.812 22.0373 173.514 22.7947 172.916 23.392C172.319 23.968 171.583 24.256 170.708 24.256Z" fill="black"/>
</svg>
