<svg width="36" height="36" viewBox="0 0 36 36" fill="none" xmlns="http://www.w3.org/2000/svg">
<g clip-path="url(#clip0_139_64)">
<path fill-rule="evenodd" clip-rule="evenodd" d="M18.0005 0.75C13.7273 0.752217 9.59426 2.26569 6.34036 5.01978C3.08647 7.77388 0.923916 11.589 0.239378 15.783C-0.44516 19.977 0.392951 24.2763 2.60387 27.9123C4.81478 31.5482 8.25432 34.2836 12.3075 35.6295C13.2016 35.7954 13.5385 35.2412 13.5385 34.77C13.5385 34.2988 13.5206 32.9325 13.5146 31.4388C8.50715 32.5206 7.44904 29.3257 7.44904 29.3257C6.63235 27.2512 5.45202 26.7058 5.45202 26.7058C3.81863 25.5974 5.57423 25.6182 5.57423 25.6182C7.38347 25.7456 8.33429 27.4645 8.33429 27.4645C9.93787 30.2 12.5459 29.4087 13.5712 28.9464C13.7322 27.7876 14.2002 26.9992 14.7158 26.5517C10.7158 26.1013 6.51312 24.5661 6.51312 17.7081C6.48833 15.9296 7.15209 14.2096 8.36708 12.904C8.18228 12.4535 7.56528 10.6338 8.54292 8.16215C8.54292 8.16215 10.0541 7.68203 13.4938 9.99666C16.4441 9.19444 19.5569 9.19444 22.5072 9.99666C25.9438 7.68203 27.452 8.16215 27.452 8.16215C28.4326 10.6279 27.8157 12.4476 27.6309 12.904C28.8497 14.2098 29.5148 15.9328 29.4878 17.7141C29.4878 24.5868 25.2762 26.1013 21.2702 26.5428C21.914 27.1 22.4893 28.1877 22.4893 29.8592C22.4893 32.2538 22.4684 34.1802 22.4684 34.77C22.4684 35.2471 22.7933 35.8043 23.7054 35.6295C27.759 34.2835 31.1989 31.5476 33.4097 27.911C35.6206 24.2744 36.4583 19.9744 35.773 15.7801C35.0876 11.5857 32.924 7.77053 29.6691 5.01691C26.4141 2.26328 22.2801 0.750812 18.0064 0.75H18.0005Z" fill="#191717"/>
<path d="M6.81684 26.4479C6.77809 26.5369 6.63502 26.5635 6.51878 26.5013C6.40253 26.4391 6.3161 26.3235 6.35783 26.2316C6.39956 26.1397 6.53965 26.116 6.65589 26.1783C6.77213 26.2405 6.86155 26.359 6.81684 26.4479Z" fill="#191717"/>
<path d="M7.54684 27.2572C7.48512 27.2881 7.4145 27.2968 7.34707 27.2816C7.27965 27.2665 7.21962 27.2285 7.17725 27.1742C7.061 27.0497 7.03715 26.8779 7.12657 26.8008C7.21598 26.7237 7.37695 26.7593 7.49319 26.8838C7.60944 27.0083 7.63626 27.1801 7.54684 27.2572Z" fill="#191717"/>
<path d="M8.25631 28.2854C8.14602 28.3625 7.95823 28.2854 7.85391 28.1313C7.82506 28.1037 7.80213 28.0705 7.78645 28.0339C7.77078 27.9972 7.7627 27.9578 7.7627 27.9179C7.7627 27.8781 7.77078 27.8387 7.78645 27.802C7.80213 27.7653 7.82506 27.7322 7.85391 27.7045C7.96419 27.6305 8.15198 27.7045 8.25631 27.8557C8.36063 28.0068 8.36361 28.2084 8.25631 28.2854V28.2854Z" fill="#191717"/>
<path d="M9.21893 29.2814C9.12057 29.391 8.92087 29.3614 8.75694 29.2132C8.593 29.065 8.55424 28.8635 8.6526 28.7568C8.75096 28.6501 8.95067 28.6797 9.12056 28.825C9.29046 28.9702 9.32325 29.1747 9.21893 29.2814V29.2814Z" fill="#191717"/>
<path d="M10.5693 29.8621C10.5246 30.0014 10.3219 30.0636 10.1192 30.0043C9.9165 29.9451 9.78237 29.7791 9.82112 29.6368C9.85987 29.4946 10.0655 29.4294 10.2712 29.4946C10.4769 29.5598 10.608 29.7169 10.5693 29.8621Z" fill="#191717"/>
<path d="M12.0415 29.963C12.0415 30.1082 11.8746 30.2327 11.66 30.2357C11.4454 30.2386 11.2695 30.1201 11.2695 29.9749C11.2695 29.8296 11.4364 29.7052 11.651 29.7022C11.8656 29.6992 12.0415 29.8148 12.0415 29.963Z" fill="#191717"/>
<path d="M13.4126 29.7346C13.4394 29.8798 13.2904 30.031 13.0758 30.0666C12.8612 30.1021 12.6734 30.0162 12.6466 29.8739C12.6198 29.7317 12.7747 29.5776 12.9834 29.539C13.192 29.5005 13.3858 29.5894 13.4126 29.7346Z" fill="#191717"/>
</g>
<defs>
<clipPath id="clip0_139_64">
<rect width="36" height="36" fill="white"/>
</clipPath>
</defs>
</svg>
