<svg width="65" height="56" viewBox="0 0 65 56" fill="none" xmlns="http://www.w3.org/2000/svg">
<rect x="0.987305" width="64.0007" height="56" rx="8" fill="#DE4C36" fill-opacity="0.1"/>
<path fill-rule="evenodd" clip-rule="evenodd" d="M50.309 26.3963L34.5905 10.679C33.686 9.77366 32.2177 9.77366 31.312 10.679L28.0481 13.9429L32.1885 18.0834C33.1507 17.7583 34.254 17.9763 35.0211 18.7434C35.7917 19.5153 36.0082 20.628 35.6752 21.5934L39.6656 25.5838C40.631 25.2512 41.7449 25.4664 42.5159 26.2387C43.5935 27.3159 43.5935 29.0618 42.5159 30.1397C41.4379 31.2177 39.692 31.2177 38.6137 30.1397C37.8031 29.3284 37.6028 28.1379 38.0133 27.1393L34.2919 23.4179L34.2915 33.2109C34.5542 33.3413 34.8023 33.5147 35.0211 33.7327C36.0987 34.8099 36.0987 36.5558 35.0211 37.6346C33.9431 38.7121 32.1964 38.7121 31.12 37.6346C30.0424 36.5558 30.0424 34.8099 31.12 33.7327C31.3862 33.4669 31.6944 33.2658 32.023 33.1307V23.2465C31.6944 23.1122 31.3866 22.9123 31.12 22.6445C30.3035 21.8292 30.1072 20.6312 30.5255 19.6287L26.4443 15.5467L15.6666 26.3236C14.7609 27.2297 14.7609 28.698 15.6666 29.6033L31.3851 45.321C32.29 46.2263 33.7579 46.2263 34.664 45.321L50.309 29.6764C51.2143 28.7707 51.2143 27.3016 50.309 26.3963" fill="#DE4C36"/>
</svg>
