<svg width="61" height="56" viewBox="0 0 61 56" fill="none" xmlns="http://www.w3.org/2000/svg">
<rect x="0.744141" width="59.743" height="56" rx="8" fill="#E44D26" fill-opacity="0.1"/>
<path fill-rule="evenodd" clip-rule="evenodd" d="M17.6329 42.4013L14.7441 10H46.4871L43.5952 42.3962L30.5962 46L17.6329 42.4013Z" fill="#E44D26"/>
<path fill-rule="evenodd" clip-rule="evenodd" d="M30.6157 43.2456L41.1196 40.3335L43.5909 12.6494H30.6157V43.2456Z" fill="#F16529"/>
<path d="M25.357 24.6663H30.6155V28.6401H21.7227L20.6509 16.623H30.6155V20.597H24.9938L25.357 24.6663Z" fill="#EBEBEB"/>
<path d="M30.5981 34.9916L30.6155 34.9869V39.1214L30.5972 39.1265L22.457 36.8667L21.9003 30.6271H25.8894L26.1723 33.7965L30.5981 34.9916Z" fill="#EBEBEB"/>
<path d="M30.6021 16.623H40.5567L40.2009 20.597H30.6021V16.623Z" fill="white"/>
<path d="M30.6021 28.6401V24.6663H39.8393L39.7423 25.7334L38.7487 36.8667L30.6021 39.1246V34.9902L35.0342 33.794L35.4955 28.6401H30.6021Z" fill="white"/>
</svg>
