<svg width="65" height="56" viewBox="0 0 65 56" fill="none" xmlns="http://www.w3.org/2000/svg">
<rect x="0.487305" width="64" height="56" rx="8" fill="#F7DF1E" fill-opacity="0.1"/>
<g clip-path="url(#clip0_106_107)">
<path fill-rule="evenodd" clip-rule="evenodd" d="M14.9092 10.4219H50.0654V45.5781H14.9092V10.4219V10.4219Z" fill="#F7DF1E"/>
<path fill-rule="evenodd" clip-rule="evenodd" d="M24.1529 39.801L26.8433 38.1728C27.3623 39.0931 27.8345 39.8717 28.967 39.8717C30.0526 39.8717 30.737 39.4471 30.737 37.7953V26.562H34.0408V37.842C34.0408 41.2639 32.035 42.8214 29.1086 42.8214C26.4657 42.8214 24.9316 41.4526 24.1528 39.8007" fill="black"/>
<path fill-rule="evenodd" clip-rule="evenodd" d="M35.8354 39.4469L38.5255 37.8894C39.2337 39.0459 40.154 39.8954 41.7823 39.8954C43.1512 39.8954 44.0241 39.2109 44.0241 38.267C44.0241 37.1342 43.1274 36.733 41.617 36.0724L40.7913 35.7182C38.4077 34.7036 36.8265 33.4293 36.8265 30.739C36.8265 28.261 38.7144 26.373 41.6644 26.373C43.7647 26.373 45.275 27.1047 46.3604 29.0162L43.7881 30.6681C43.2217 29.6534 42.6083 29.2523 41.6644 29.2523C40.6968 29.2523 40.0832 29.8658 40.0832 30.6681C40.0832 31.6593 40.6968 32.0605 42.1126 32.6742L42.9385 33.0281C45.7468 34.2318 47.328 35.4588 47.328 38.2198C47.328 41.1934 44.9918 42.8216 41.8531 42.8216C38.7853 42.8216 36.8029 41.3585 35.8355 39.4469" fill="black"/>
</g>
<defs>
<clipPath id="clip0_106_107">
<rect width="36" height="36" fill="white" transform="translate(14.4873 10)"/>
</clipPath>
</defs>
</svg>
