<svg width="65" height="56" viewBox="0 0 65 56" fill="none" xmlns="http://www.w3.org/2000/svg">
<rect x="0.987305" width="64" height="56" rx="8" fill="#539E43" fill-opacity="0.1"/>
<path fill-rule="evenodd" clip-rule="evenodd" d="M33.0192 45.5129C32.5356 45.5129 32.0843 45.3839 31.6652 45.1583L27.3775 42.6115C26.7328 42.2569 27.0552 42.1279 27.2486 42.0634C28.119 41.7733 28.2802 41.7088 29.1829 41.193C29.2796 41.1285 29.4085 41.1608 29.5052 41.2252L32.7935 43.1918C32.9225 43.2562 33.0837 43.2562 33.1804 43.1918L46.0433 35.7448C46.1723 35.6803 46.2367 35.5514 46.2367 35.3902V20.5285C46.2367 20.3673 46.1723 20.2383 46.0433 20.1739L33.1804 12.7591C33.0514 12.6947 32.8902 12.6947 32.7935 12.7591L19.9306 20.1739C19.8016 20.2383 19.7371 20.3995 19.7371 20.5285V35.3902C19.7371 35.5191 19.8016 35.6803 19.9306 35.7448L23.4445 37.7758C25.3465 38.7429 26.5393 37.6146 26.5393 36.4863V21.818C26.5393 21.6246 26.7005 21.4311 26.9262 21.4311H28.5703C28.7638 21.4311 28.9572 21.5923 28.9572 21.818V36.4863C28.9572 39.0331 27.571 40.516 25.1531 40.516C24.4116 40.516 23.8314 40.516 22.1872 39.7101L18.8022 37.7758C17.964 37.2922 17.4482 36.3896 17.4482 35.4224V20.5607C17.4482 19.5936 17.964 18.6909 18.8022 18.2073L31.6652 10.7604C32.4711 10.309 33.5672 10.309 34.3732 10.7604L47.2361 18.2073C48.0743 18.6909 48.5901 19.5936 48.5901 20.5607V35.4224C48.5901 36.3896 48.0743 37.2922 47.2361 37.7758L34.3732 45.2228C33.9541 45.4162 33.4705 45.5129 33.0192 45.5129ZM36.9844 35.2935C31.3428 35.2935 30.1822 32.7144 30.1822 30.5222C30.1822 30.3288 30.3434 30.1354 30.5691 30.1354H32.2455C32.4389 30.1354 32.6001 30.2643 32.6001 30.4578C32.858 32.1664 33.5995 33.0046 37.0167 33.0046C39.7247 33.0046 40.8852 32.392 40.8852 30.9413C40.8852 30.1031 40.5629 29.4906 36.3397 29.0715C32.8257 28.7169 30.6336 27.9432 30.6336 25.1385C30.6336 22.5272 32.8257 20.9798 36.5009 20.9798C40.6273 20.9798 42.6583 22.3983 42.9162 25.4931C42.9162 25.5898 42.884 25.6865 42.8195 25.7833C42.755 25.8477 42.6583 25.9122 42.5616 25.9122H40.8852C40.724 25.9122 40.5629 25.7833 40.5306 25.6221C40.1438 23.849 39.1444 23.2687 36.5009 23.2687C33.535 23.2687 33.1804 24.3003 33.1804 25.074C33.1804 26.0089 33.5995 26.2991 37.597 26.8149C41.5622 27.3307 43.432 28.0722 43.432 30.8446C43.3998 33.6816 41.0787 35.2935 36.9844 35.2935Z" fill="#539E43"/>
</svg>
