<svg width="64" height="56" viewBox="0 0 64 56" fill="none" xmlns="http://www.w3.org/2000/svg">
<rect width="64" height="56" rx="8" fill="#00D8FF" fill-opacity="0.1"/>
<path d="M43.5992 22.3502C43.2258 22.2217 42.8388 22.1 42.4403 21.985C42.5058 21.7177 42.5659 21.4539 42.6194 21.1946C43.4966 16.9363 42.9231 13.5058 40.9645 12.3764C39.0864 11.2933 36.015 12.4226 32.9131 15.1221C32.6148 15.3817 32.3157 15.6565 32.0167 15.9446C31.8174 15.754 31.6185 15.5698 31.4201 15.3937C28.1692 12.5071 24.9106 11.2907 22.954 12.4234C21.0777 13.5096 20.5221 16.7346 21.3117 20.7702C21.388 21.16 21.4771 21.558 21.5779 21.9628C21.1167 22.0937 20.6715 22.2333 20.2455 22.3817C16.4341 23.7105 14 25.7931 14 27.9533C14 30.1844 16.613 32.4222 20.5829 33.779C20.8962 33.8861 21.2212 33.9874 21.5563 34.0835C21.4475 34.5212 21.3529 34.9502 21.2735 35.3685C20.5206 39.3341 21.1086 42.4829 22.9798 43.5622C24.9127 44.6768 28.1565 43.5311 31.3152 40.7701C31.5648 40.5518 31.8154 40.3203 32.0664 40.0777C32.3917 40.391 32.7165 40.6875 33.0396 40.9656C36.0992 43.5985 39.121 44.6616 40.9905 43.5793C42.9214 42.4615 43.5489 39.0789 42.7342 34.9635C42.672 34.6492 42.5996 34.3281 42.5183 34.0013C42.7461 33.9339 42.9697 33.8644 43.1878 33.7921C47.3148 32.4247 50 30.2142 50 27.9533C50 25.7853 47.4874 23.6887 43.5992 22.3502ZM42.7041 32.3323C42.5072 32.3975 42.3053 32.4605 42.0994 32.5215C41.6438 31.0792 41.0289 29.5454 40.2764 27.9608C40.9945 26.4139 41.5857 24.8998 42.0285 23.4668C42.3968 23.5734 42.7542 23.6857 43.0986 23.8044C46.43 24.9512 48.4621 26.6468 48.4621 27.9533C48.4621 29.345 46.2675 31.1516 42.7041 32.3323ZM41.2255 35.2622C41.5858 37.082 41.6372 38.7273 41.3986 40.0135C41.1842 41.1692 40.753 41.9398 40.2199 42.2484C39.0853 42.9051 36.6592 42.0514 34.0426 39.7998C33.7426 39.5417 33.4405 39.2661 33.1374 38.9744C34.1518 37.865 35.1656 36.5753 36.155 35.1429C37.8954 34.9885 39.5396 34.736 41.0307 34.3913C41.1041 34.6876 41.1693 34.9781 41.2255 35.2622ZM26.2732 42.1349C25.1648 42.5263 24.2819 42.5376 23.7483 42.2298C22.6127 41.5749 22.1407 39.0467 22.7846 35.6554C22.8584 35.267 22.9461 34.868 23.0473 34.4602C24.522 34.7863 26.1542 35.021 27.8987 35.1624C28.8948 36.564 29.9379 37.8523 30.9891 38.9804C30.7594 39.2021 30.5307 39.4132 30.3032 39.6121C28.9064 40.833 27.5067 41.6992 26.2732 42.1349ZM21.0803 32.3238C19.3249 31.7238 17.8752 30.944 16.8815 30.0931C15.9886 29.3285 15.5378 28.5693 15.5378 27.9533C15.5378 26.6424 17.4922 24.9704 20.7517 23.834C21.1472 23.6961 21.5613 23.5661 21.9909 23.444C22.4414 24.9094 23.0323 26.4415 23.7455 27.9907C23.0231 29.563 22.4238 31.1195 21.9689 32.602C21.6626 32.514 21.3658 32.4213 21.0803 32.3238ZM22.821 20.4748C22.1444 17.0172 22.5938 14.409 23.7245 13.7544C24.9288 13.0572 27.592 14.0513 30.399 16.5437C30.5784 16.703 30.7585 16.8697 30.9392 17.0422C29.8932 18.1654 28.8597 19.444 27.8724 20.8373C26.1793 20.9943 24.5586 21.2464 23.0685 21.5839C22.9748 21.2071 22.8918 20.8368 22.821 20.4748ZM38.3498 24.3093C37.9935 23.694 37.6278 23.0933 37.255 22.5089C38.4037 22.6541 39.5042 22.8469 40.5376 23.0828C40.2274 24.0771 39.8406 25.1168 39.3854 26.1827C39.0589 25.5627 38.7135 24.9376 38.3498 24.3093ZM32.0172 18.1413C32.7265 18.9098 33.4369 19.7679 34.1356 20.6988C33.4315 20.6655 32.7187 20.6482 32 20.6482C31.2881 20.6482 30.5805 20.6652 29.8808 20.6978C30.5802 19.7755 31.2967 18.9187 32.0172 18.1413ZM25.644 24.3199C25.2882 24.937 24.9492 25.5587 24.6278 26.1815C24.1799 25.1194 23.7968 24.075 23.4838 23.0665C24.511 22.8366 25.6063 22.6487 26.7476 22.5062C26.3695 23.096 26.0008 23.7011 25.644 24.3198V24.3199ZM26.7805 33.5101C25.6013 33.3785 24.4895 33.2003 23.4626 32.9768C23.7806 31.9503 24.1722 30.8835 24.6295 29.7985C24.9518 30.421 25.2921 31.0429 25.6501 31.6613H25.6502C26.0148 32.2912 26.3927 32.9083 26.7805 33.5101ZM32.0597 37.8737C31.3308 37.0873 30.6038 36.2173 29.8937 35.2816C30.583 35.3086 31.2858 35.3225 32 35.3225C32.7338 35.3225 33.4592 35.3059 34.1731 35.2741C33.4721 36.2267 32.7643 37.098 32.0597 37.8737ZM39.4001 29.7432C39.8813 30.84 40.2869 31.9011 40.609 32.9101C39.5652 33.1482 38.4382 33.34 37.2508 33.4825C37.6245 32.8903 37.9934 32.2793 38.3559 31.6507C38.7226 31.0148 39.0709 30.3779 39.4001 29.7432ZM37.0238 30.8824C36.461 31.8581 35.8833 32.7896 35.2968 33.6688C34.2285 33.7452 33.1249 33.7846 32 33.7846C30.8797 33.7846 29.79 33.7498 28.7406 33.6816C28.1304 32.7909 27.5401 31.8567 26.981 30.8908H26.9811C26.4234 29.9275 25.9101 28.9562 25.4451 27.9902C25.91 27.022 26.4219 26.0496 26.9764 25.0881L26.9763 25.0883C27.5322 24.1242 28.1174 23.1945 28.7219 22.3093C29.7925 22.2284 30.8904 22.1862 31.9999 22.1862H32C33.1145 22.1862 34.2138 22.2287 35.2841 22.3103C35.8794 23.1891 36.4606 24.1157 37.0187 25.0799C37.5832 26.055 38.1017 27.021 38.5707 27.9684C38.1031 28.9321 37.5857 29.9078 37.0238 30.8824ZM40.1963 13.7087C41.4018 14.4039 41.8706 17.2076 41.1132 20.8842C41.0649 21.1188 41.0105 21.3577 40.9514 21.5999C39.4578 21.2553 37.836 20.9988 36.1379 20.8395C35.1487 19.4309 34.1237 18.1502 33.0947 17.0415C33.3714 16.7754 33.6476 16.5217 33.9227 16.2822C36.5805 13.9692 39.0645 13.056 40.1963 13.7087ZM32 24.7386C33.7754 24.7386 35.2147 26.1779 35.2147 27.9533C35.2147 29.7287 33.7754 31.168 32 31.168C30.2246 31.168 28.7853 29.7287 28.7853 27.9533C28.7853 26.1779 30.2246 24.7386 32 24.7386Z" fill="#00D8FF"/>
</svg>
