<svg width="65" height="56" viewBox="0 0 65 56" fill="none" xmlns="http://www.w3.org/2000/svg">
<rect x="0.487305" width="64" height="56" rx="8" fill="#764ABC" fill-opacity="0.1"/>
<path d="M38.9975 34.2506C40.2429 34.1238 41.1878 33.0683 41.1448 31.8014C41.102 30.5347 40.0282 29.5213 38.7398 29.5213H38.6539C37.3224 29.5636 36.2917 30.6614 36.3347 31.9703C36.3776 32.6037 36.6353 33.1526 37.0218 33.5327C35.5616 36.3618 33.3283 38.4308 29.9783 40.162C27.7021 41.3443 25.3399 41.7666 22.9778 41.4711C21.0451 41.2177 19.5419 40.3733 18.5969 38.9797C17.2227 36.9107 17.0939 34.6727 18.2535 32.4348C19.0696 30.8303 20.3579 29.6479 21.1739 29.0568C21.0022 28.5079 20.7444 27.5789 20.6156 26.9034C14.3881 31.337 15.0324 37.333 16.9221 40.162C18.3393 42.2734 21.2169 43.5823 24.3951 43.5823C25.254 43.5823 26.1129 43.4978 26.9719 43.2868C32.4694 42.2311 36.6354 39.022 38.9975 34.2506V34.2506ZM46.5564 29.0147C43.2923 25.2566 38.4821 23.1876 32.9847 23.1876H32.2976C31.911 22.4275 31.095 21.9208 30.1931 21.9208H30.1071C28.7759 21.963 27.7452 23.0608 27.788 24.3699C27.831 25.6366 28.9047 26.65 30.1931 26.65H30.2789C31.2238 26.6078 32.0399 26.0166 32.3834 25.2143H33.1565C36.4206 25.2143 39.5128 26.1432 42.3046 27.959C44.4519 29.3524 45.9981 31.1681 46.857 33.3638C47.5871 35.1372 47.5442 36.8685 46.7711 38.3464C45.5686 40.5843 43.5501 41.8089 40.8872 41.8089C39.1693 41.8089 37.5373 41.3021 36.6782 40.9221C36.2059 41.3443 35.3468 42.0199 34.7455 42.4423C36.5924 43.2867 38.4821 43.7512 40.2859 43.7512C44.409 43.7512 47.4583 41.5132 48.618 39.2753C49.8634 36.8262 49.7775 32.6037 46.5564 29.0147V29.0147ZM24.7386 34.9682C24.7816 36.2351 25.8553 37.2484 27.1437 37.2484H27.2297C28.5611 37.2062 29.5918 36.1083 29.5488 34.7993C29.506 33.5325 28.4322 32.5192 27.1437 32.5192H27.0579C26.9719 32.5192 26.843 32.5192 26.7573 32.5613C24.9964 29.6901 24.2663 26.5655 24.524 23.1874C24.6957 20.6539 25.5547 18.4582 27.0579 16.6425C28.3034 15.0801 30.7084 14.3201 32.3406 14.278C36.893 14.1934 38.8256 19.7671 38.9545 22.0051C39.5128 22.1318 40.4577 22.4274 41.102 22.6385C40.5865 15.7982 36.2917 12.2512 32.1688 12.2512C28.3034 12.2512 24.7386 14.9959 23.3213 19.0495C21.3457 24.4543 22.6341 29.6479 25.0392 33.7438C24.8246 34.0393 24.6957 34.5038 24.7386 34.9684V34.9682Z" fill="#764ABC"/>
</svg>
