<svg width="60" height="56" viewBox="0 0 60 56" fill="none" xmlns="http://www.w3.org/2000/svg">
<rect x="0.487305" width="59.5" height="56" rx="8" fill="#8CC84B" fill-opacity="0.1"/>
<path fill-rule="evenodd" clip-rule="evenodd" d="M24.1674 32.0289C23.5952 32.3867 22.7331 32.9664 22.0662 33.5969C20.9713 34.6309 20.7422 36.0651 21.3198 36.4002C21.8541 36.7099 23.1014 36.3413 23.9941 35.3677C24.931 34.3454 25.3174 33.0495 24.9183 31.5783C24.8714 31.6063 24.8254 31.6343 24.7803 31.6604L24.7812 31.6624L24.7207 31.6967C24.4878 31.8357 24.2974 31.9504 24.1674 32.0289V32.0289V32.0289ZM40.2462 31.5648C39.9221 32.2691 39.9059 32.4958 40.0043 32.5663C40.4746 32.3973 41.2526 31.9902 41.2588 30.8991C41.2598 30.7357 41.2237 30.5604 41.1659 30.3771C40.6631 30.8223 40.3733 31.2884 40.2462 31.5648V31.5648V31.5648ZM45.2923 29.4352C44.0359 29.2888 43.0556 29.465 42.2948 29.782C42.4357 30.1486 42.544 30.5306 42.5593 30.9154C42.5946 31.7598 42.0133 32.3848 41.4075 32.831C41.0538 33.0911 40.6774 33.2644 40.3614 33.3692C40.1088 33.4757 39.773 33.5858 39.5346 33.5372C39.0092 33.4304 38.7295 32.9637 39.087 31.9342C39.2801 31.377 39.837 30.5289 40.736 29.7983C40.5311 29.3765 40.3027 28.9467 40.1863 28.5519C39.9569 27.7735 39.8877 27.3029 39.8877 27.3029C39.8877 27.3029 39.1467 28.8392 38.1907 30.2363C38.1356 30.3175 38.0806 30.3971 38.0255 30.4764C38.2132 30.9128 38.3611 31.3742 38.3812 31.8394C38.4164 32.6838 38.0508 33.3223 37.4442 33.7675C37.1158 34.0096 36.7655 34.1768 36.4649 34.2833C36.2727 34.3672 35.8817 34.5052 35.3258 34.5424C35.0218 34.5632 34.7293 34.5444 34.566 34.4206C34.3412 34.2508 34.3141 34.0412 34.4305 33.7549C34.529 33.5119 35.2654 32.6712 35.8829 31.9352C36.0534 31.7319 36.2158 31.5242 36.3611 31.3319L36.3576 31.3236C36.3576 31.3237 36.4694 31.1793 36.6509 30.9273C36.4252 30.4414 36.1392 29.9355 36.0047 29.4768C35.7753 28.6984 35.7059 28.2278 35.7059 28.2278C35.7059 28.2278 34.9548 30.1533 34.1724 31.6904C33.5669 32.8809 33.1624 33.6023 32.9802 33.9184L32.9783 33.9311C32.9783 33.9311 32.9511 33.9773 32.9043 34.0495L32.8692 34.1081L32.8682 34.1026C32.665 34.4026 32.2093 34.9904 31.7562 34.9904C30.5125 34.9904 30.9691 32.4644 30.9691 32.4644C30.9691 32.4644 30.6055 33.4 30.1956 34.2029C29.8618 34.8577 29.5576 35.4124 28.8924 35.4124C28.7011 35.4124 28.3978 35.4068 28.1459 35.1674C27.5746 34.6246 27.1378 33.2464 27.2234 32.1789C27.2965 31.2713 27.4364 30.6427 27.6277 30.1181C27.2865 30.3041 26.8922 30.5246 26.4905 30.7603L25.8731 31.1242L25.893 31.1603C26.4038 32.1484 26.5401 34.3132 25.4263 35.9749C24.3126 37.6375 22.2394 38.6491 20.2195 38.0874C19.5677 37.9058 18.583 36.5574 19.4323 34.678C20.1814 33.0207 23.1753 31.4538 23.9643 31.0628L24.1808 30.9435C22.6078 29.5671 18.6796 27.7103 18.1291 24.8582C17.9738 24.0554 18.3502 22.1353 20.7077 19.9281C22.6906 18.0722 25.449 16.6506 27.997 15.7448C32.2778 14.223 36.8008 15.1207 37.4966 17.85C38.1808 20.5341 35.8522 23.7448 32.87 24.899C30.2074 25.9294 28.006 25.766 27.1016 25.4689C26.0735 25.1312 25.4706 24.4528 25.3236 24.0699C25.2657 23.92 25.1663 23.6681 25.3236 23.5814C25.42 23.5281 25.4588 23.5408 25.7169 23.8261C25.9626 24.0971 26.9499 24.8242 28.8255 24.6136C33.7474 24.0619 36.7122 20.2352 35.7753 18.176C35.1192 16.7347 31.3257 16.0844 26.5862 18.4479C20.8006 21.3324 20.4866 23.7105 20.437 24.6136C20.3015 27.0981 23.5011 28.4049 25.2324 30.2526L25.2991 30.3258C25.6231 30.147 25.9653 29.9583 26.3009 29.7741C27.1738 29.2945 27.997 28.8446 28.3805 28.635C28.9899 27.7494 30.2263 26.772 31.119 26.772C32.5459 26.772 32.0558 28.8231 32.0558 28.8231C32.0558 28.8231 32.0848 28.7292 32.1235 28.7283C32.1641 28.7272 32.3213 28.4581 32.7618 28.6188C33.2148 28.785 33.1118 29.103 33.1147 29.1355C33.1201 29.1986 32.5794 31.022 32.3547 32.1916C32.2472 32.7497 32.3094 33.1563 32.3412 33.1563C32.3854 33.1563 32.4757 33.0144 32.5596 32.8618L32.5577 32.8573C32.5577 32.8573 32.6209 32.7417 32.7266 32.534L32.7474 32.4906L32.7482 32.4926C32.8729 32.2487 33.0478 31.8901 33.25 31.4458C33.6462 30.5725 35.158 27.2011 35.2862 26.8281C35.4143 26.4551 35.4811 26.0695 35.5443 25.9041C35.6066 25.7389 36.141 25.6142 36.7655 25.6188C37.3901 25.6233 37.4534 25.8897 37.4577 25.9449C37.4623 25.9999 37.1608 26.7396 37.0913 27.2625C37.0228 27.7854 37.0887 28.0463 37.1456 28.4853C37.1826 28.7724 37.3621 29.1365 37.5744 29.5492C38.2206 28.4924 39.3577 26.4713 39.467 25.905C39.5418 25.5176 39.6619 25.1464 39.7251 24.981C39.7882 24.8158 40.3218 24.6913 40.9462 24.6957C41.5708 24.7002 41.6339 24.9666 41.6385 25.0218C41.6431 25.0769 41.3406 25.8165 41.2721 26.3395C41.2034 26.8614 41.2695 27.1234 41.3262 27.5623C41.3751 27.938 41.6656 28.4428 41.9536 29.0171C42.7396 28.6296 43.6648 28.3696 44.748 28.3642C45.1965 28.3616 45.7174 28.4067 45.9864 28.4906V19.8503C45.9864 19.2408 45.674 18.6791 45.1461 18.3748L31.0514 10.2283C30.5244 9.9239 29.879 9.9239 29.3519 10.2283L15.2961 18.3708C14.769 18.6752 14.4873 19.2379 14.4873 19.8465V36.1465C14.4873 36.755 14.7707 37.3177 15.297 37.622L29.3754 45.7709C29.9024 46.0764 30.5415 46.0764 31.0685 45.7709L45.1533 37.622C45.6804 37.3168 45.9874 36.7549 45.9874 36.1465V29.559C45.8086 29.5063 45.5468 29.4649 45.2923 29.4352V29.4352V29.4352ZM30.1288 28.5817C29.8265 28.9203 29.3111 29.7936 29.0701 30.5245C28.5908 31.9757 28.7984 33.4505 29.1378 33.5391C29.534 33.6428 30.1839 31.703 30.4951 30.9443C30.6901 30.4692 31.4483 28.3606 31.2822 28.0788C31.1525 27.8584 30.6153 28.0363 30.1288 28.5817V28.5817V28.5817ZM35.6123 33.473C35.6123 33.473 35.5167 33.5634 35.558 33.5886C35.614 33.6221 35.735 33.5787 35.8668 33.51C36.2396 33.2754 37.0762 32.69 37.078 31.8239C37.078 31.7987 37.077 31.7743 37.0753 31.7481C36.8813 32.0028 36.7025 32.2295 36.5482 32.4218C36.2846 32.7496 35.6123 33.473 35.6123 33.473V33.473V33.473Z" fill="#8CC84B"/>
</svg>
