<svg width="65" height="56" viewBox="0 0 65 56" fill="none" xmlns="http://www.w3.org/2000/svg">
<rect x="0.987305" width="64" height="56" rx="8" fill="#3178C6" fill-opacity="0.1"/>
<g clip-path="url(#clip0_106_166)">
<path d="M17.7998 10H48.1748C49.7281 10 50.9873 11.2592 50.9873 12.8125V43.1875C50.9873 44.7408 49.7281 46 48.1748 46H17.7998C16.2465 46 14.9873 44.7408 14.9873 43.1875V12.8125C14.9873 11.2592 16.2465 10 17.7998 10Z" fill="#3178C6"/>
<path d="M36.1539 38.1918V42.0759C36.7856 42.3996 37.5327 42.6423 38.3952 42.8042C39.2576 42.966 40.1666 43.0469 41.1223 43.0469C42.0535 43.0469 42.9384 42.9579 43.7765 42.7798C44.6146 42.6018 45.3496 42.3085 45.9812 41.8999C46.6129 41.4913 47.1129 40.9572 47.4815 40.2977C47.85 39.6383 48.0342 38.8231 48.0342 37.852C48.0342 37.1481 47.9289 36.531 47.7183 36.001C47.5078 35.471 47.2041 34.9996 46.8072 34.587C46.4105 34.1743 45.9346 33.8042 45.38 33.4764C44.8253 33.1487 44.1996 32.8392 43.5031 32.548C42.9929 32.3374 42.5355 32.1332 42.1305 31.935C41.7256 31.7367 41.3814 31.5345 41.098 31.328C40.8145 31.1217 40.5958 30.9032 40.442 30.6726C40.2881 30.442 40.2112 30.1811 40.2112 29.8897C40.2112 29.6227 40.28 29.3821 40.4176 29.1676C40.5553 28.9532 40.7498 28.7691 41.0008 28.6154C41.2518 28.4615 41.5595 28.3423 41.924 28.2572C42.2884 28.1723 42.6934 28.1298 43.1387 28.1298C43.4627 28.1298 43.8049 28.1541 44.1652 28.2026C44.5256 28.2512 44.888 28.326 45.2525 28.4272C45.6168 28.5283 45.9711 28.6557 46.3153 28.8096C46.6594 28.9633 46.9774 29.1413 47.2689 29.3435V25.7144C46.6777 25.4879 46.0318 25.32 45.3314 25.2107C44.6309 25.1014 43.8271 25.0469 42.9201 25.0469C41.9969 25.0469 41.1223 25.146 40.2963 25.3443C39.4703 25.5424 38.7434 25.852 38.1158 26.2727C37.4881 26.6936 36.9922 27.2297 36.6277 27.881C36.2633 28.5324 36.0811 29.3112 36.0811 30.2175C36.0811 31.3746 36.415 32.3618 37.0833 33.1791C37.7514 33.9962 38.7656 34.6881 40.1261 35.2546C40.6606 35.4731 41.1587 35.6874 41.6203 35.8979C42.0819 36.1083 42.4808 36.3267 42.8169 36.5532C43.1529 36.7798 43.4182 37.0266 43.6125 37.2936C43.8069 37.5607 43.904 37.8641 43.904 38.204C43.904 38.4548 43.8433 38.6875 43.7218 38.902C43.6004 39.1163 43.4161 39.3025 43.1691 39.4602C42.9222 39.618 42.6144 39.7413 42.2459 39.8304C41.8775 39.9194 41.4462 39.964 40.9522 39.964C40.11 39.964 39.2759 39.8163 38.4499 39.5208C37.6237 39.2255 36.8584 38.7826 36.1539 38.1918ZM29.6801 28.5262H34.6748V25.3281H20.7529V28.5262H25.7233V42.7656H29.6801V28.5262Z" fill="white"/>
</g>
<defs>
<clipPath id="clip0_106_166">
<rect width="36" height="36" fill="white" transform="translate(14.9873 10)"/>
</clipPath>
</defs>
</svg>
